<svg width="844" height="244" viewBox="0 0 844 244" fill="none" xmlns="http://www.w3.org/2000/svg">
<path d="M243.71 60.94V182.78C243.71 216.42 216.43 243.7 182.77 243.7H60.92C53.03 243.7 45.51 242.2 38.58 239.44C23.23 233.42 10.94 221.32 4.64 206.12C1.65 198.94 0 191.05 0 182.77V60.94C0 27.28 27.28 0 60.92 0H182.76C216.42 0 243.7 27.28 243.7 60.94H243.71Z" fill="#4BA2DA"/>
<path d="M328.59 179.017C334.47 179.017 339.49 181.177 343.63 185.487C347.78 189.797 349.85 195.007 349.85 201.117C349.85 207.227 347.78 212.517 343.63 216.827C339.54 221.087 334.53 223.217 328.59 223.217C321.59 223.217 316.29 220.447 312.71 214.897V222.127H305.4V163.297H312.71V187.327C316.29 181.777 321.59 179.007 328.59 179.007V179.017ZM327.67 216.167C331.87 216.167 335.4 214.737 338.26 211.877C341.12 208.967 342.55 205.377 342.55 201.117C342.55 196.857 341.12 193.297 338.26 190.447C335.4 187.537 331.87 186.077 327.67 186.077C323.47 186.077 319.86 187.537 317 190.447C314.14 193.307 312.71 196.867 312.71 201.117C312.71 205.367 314.14 208.957 317 211.877C319.86 214.737 323.41 216.167 327.67 216.167Z" fill="#4BA2DA"/>
<path d="M386.241 180.104H394.061L376.921 224.724C375.131 229.484 372.621 233.114 369.401 235.604C366.181 238.094 362.471 239.204 358.271 238.924V232.114C363.371 232.564 367.151 229.704 369.621 223.544L370.381 221.944L352.061 180.094H359.871L374.161 213.034L386.261 180.094L386.241 180.104Z" fill="#4BA2DA"/>
<path d="M464.731 222.127H455.151L429.771 193.887V222.127H421.951V163.297H429.771V189.857L454.311 163.297H463.891L437.921 191.867L464.731 222.117V222.127Z" fill="#4BA2DA"/>
<path d="M497.68 180.109H505.5L488.36 224.729C486.57 229.489 484.06 233.119 480.84 235.609C477.62 238.099 473.91 239.209 469.71 238.929V232.119C474.81 232.509 478.59 229.709 481.06 223.719L481.73 222.209L463.49 180.109H471.22L485.59 213.049L497.69 180.109H497.68Z" fill="#4BA2DA"/>
<path d="M534.821 179.018C540.701 179.018 545.721 181.178 549.861 185.488C554.011 189.798 556.081 195.008 556.081 201.118C556.081 207.228 554.011 212.518 549.861 216.828C545.771 221.088 540.761 223.218 534.821 223.218C527.821 223.218 522.521 220.448 518.941 214.898V238.928H511.631V180.098H518.941V187.328C522.521 181.778 527.821 179.008 534.821 179.008V179.018ZM533.901 216.168C538.101 216.168 541.631 214.738 544.491 211.878C547.351 208.968 548.781 205.378 548.781 201.118C548.781 196.858 547.351 193.298 544.491 190.448C541.631 187.538 538.101 186.078 533.901 186.078C529.701 186.078 526.091 187.538 523.231 190.448C520.371 193.308 518.941 196.868 518.941 201.118C518.941 205.368 520.371 208.958 523.231 211.878C526.091 214.738 529.641 216.168 533.901 216.168Z" fill="#4BA2DA"/>
<path d="M584.571 223.218C578.241 223.218 572.971 221.118 568.771 216.918C564.571 212.658 562.471 207.398 562.471 201.118C562.471 194.838 564.571 189.608 568.771 185.398C572.971 181.138 578.241 179.008 584.571 179.008C588.721 179.008 592.441 179.988 595.751 181.958C599.051 183.928 601.521 186.588 603.141 189.938L597.011 193.468C595.941 191.228 594.321 189.438 592.141 188.088C589.961 186.748 587.431 186.068 584.581 186.068C580.381 186.068 576.851 187.498 573.991 190.368C571.191 193.288 569.791 196.858 569.791 201.068C569.791 205.278 571.191 208.768 573.991 211.688C576.851 214.548 580.381 215.988 584.581 215.988C587.441 215.988 589.971 215.328 592.191 214.018C594.401 212.698 596.101 210.918 597.271 208.678L603.491 212.288C601.701 215.648 599.121 218.308 595.761 220.268C592.401 222.228 588.671 223.208 584.581 223.208L584.571 223.218Z" fill="#4BA2DA"/>
<path d="M650.29 222.127L645.5 208.937H619.03L614.24 222.127H605.92L627.85 163.297H636.67L658.6 222.127H650.28H650.29ZM621.72 201.627H642.81L632.22 172.637L621.72 201.627Z" fill="#4BA2DA"/>
<path d="M685.75 179.016C688.22 179.016 690.44 179.426 692.43 180.236C694.42 181.046 696.13 182.196 697.56 183.686C698.99 185.176 700.09 186.976 700.88 189.106C701.66 191.236 702.06 193.646 702.06 196.336V222.136H694.75V196.816C694.75 193.406 693.83 190.766 691.98 188.896C690.13 187.026 687.58 186.086 684.33 186.086C680.69 186.086 677.74 187.216 675.51 189.486C673.27 191.746 672.15 195.226 672.15 199.926V222.146H664.84V180.126H672.15V186.176C675.06 181.416 679.6 179.036 685.76 179.036L685.75 179.016Z" fill="#4BA2DA"/>
<path d="M735.08 187.169H723.9V209.939C723.9 211.559 724.14 212.779 724.61 213.599C725.09 214.409 725.79 214.989 726.71 215.319C727.63 215.649 728.8 215.809 730.2 215.779C731.6 215.749 733.23 215.679 735.07 215.569V222.129C728.68 222.969 724 222.449 721.03 220.579C718.06 218.699 716.58 215.159 716.58 209.949V187.179H708.26V180.119H716.58V170.539L723.89 168.359V180.129H735.07V187.189L735.08 187.169Z" fill="#4BA2DA"/>
<path d="M305.4 39.5469V19.5469H391.12V39.5469H358.98V119.547H337.55V39.5469H305.41H305.4Z" fill="#4BA2DA"/>
<path d="M401.76 110.485C394.19 103.005 390.4 93.8847 390.4 83.1247C390.4 72.3647 394.19 63.2447 401.76 55.7647C409.33 48.2947 418.64 44.5547 429.69 44.5547C440.74 44.5547 450.17 48.2647 457.41 55.6947C464.65 63.1247 468.27 72.2647 468.27 83.1247V87.4147H411.12C411.88 92.1747 414.02 96.2247 417.55 99.5547C421.07 102.895 425.12 104.555 429.69 104.555C434.74 104.555 439.07 103.125 442.69 100.265C444.12 99.0247 445.26 97.6047 446.12 95.9747H467.55C465.93 100.835 463.55 105.115 460.41 108.835C452.79 117.405 442.55 121.695 429.69 121.695C418.64 121.695 409.33 117.955 401.76 110.485ZM411.83 75.2647H446.83C446.07 71.4547 444.14 68.2447 441.04 65.6247C437.94 63.0047 434.16 61.6947 429.68 61.6947C425.2 61.6947 421.39 62.9847 418.25 65.5547C415.11 68.1247 412.96 71.3647 411.82 75.2647H411.83Z" fill="#4BA2DA"/>
<path d="M475.41 95.9847H496.13C496.79 97.7047 497.84 99.2747 499.27 100.695C502.32 103.745 506.51 105.265 511.84 105.265C519.93 105.265 523.98 102.885 523.98 98.1247C523.98 97.3647 523.79 96.6747 523.41 96.0547C523.03 95.4347 522.36 94.8647 521.41 94.3347C520.46 93.8147 519.55 93.3647 518.7 92.9747C517.84 92.5947 516.58 92.1947 514.91 91.7647C513.24 91.3347 511.91 91.0247 510.91 90.8347C509.91 90.6447 508.34 90.3147 506.2 89.8347C504.06 89.3647 502.51 89.0247 501.56 88.8347C486.51 85.5947 478.99 78.2147 478.99 66.6947C478.99 60.6047 481.73 55.3847 487.21 51.0547C492.69 46.7247 500.18 44.5547 509.71 44.5547C522.47 44.5547 532.04 48.5047 538.43 56.4147C541.19 59.8447 543.05 63.7547 544 68.1247H524C523.33 66.6947 522.48 65.5047 521.43 64.5547C518.48 62.1747 514.57 60.9847 509.71 60.9847C506.28 60.9847 503.76 61.5347 502.14 62.6247C500.52 63.7247 499.71 65.0747 499.71 66.6947C499.71 67.2647 499.83 67.8147 500.07 68.3347C500.31 68.8647 500.71 69.3347 501.28 69.7647C501.85 70.1947 502.42 70.5747 503 70.9047C503.57 71.2347 504.38 71.5747 505.43 71.9047C506.48 72.2347 507.41 72.5447 508.22 72.8347C509.03 73.1247 510.1 73.4047 511.44 73.6947C512.77 73.9847 513.92 74.2247 514.87 74.4047C515.82 74.5947 517.06 74.8547 518.58 75.1947C520.1 75.5247 521.34 75.7947 522.29 75.9847C537.24 79.3147 544.72 86.6947 544.72 98.1247C544.72 104.505 541.77 110.035 535.86 114.695C529.95 119.365 521.95 121.695 511.86 121.695C498.34 121.695 488.33 117.405 481.86 108.835C478.91 104.935 476.76 100.645 475.43 95.9747L475.41 95.9847Z" fill="#4BA2DA"/>
<path d="M550.41 63.8344V46.6944H559.7V30.9844H579.7V46.6944H600.27V63.8344H579.7V102.404H601.13V119.544H559.7V63.8244H550.41V63.8344Z" fill="#4BA2DA"/>
<path d="M605.41 119.555L631.84 19.5547H676.84L703.27 119.555H681.12L675.41 97.4147H633.26L627.54 119.555H605.4H605.41ZM638.27 77.4047H670.41L660.41 39.5447H648.27L638.27 77.4047Z" fill="#4BA2DA"/>
<path d="M711.84 119.555V46.6947H731.84V56.6947H732.55C733.79 54.5047 735.55 52.5047 737.84 50.6947C743.08 46.6047 748.94 44.5547 755.41 44.5547C764.46 44.5547 771.48 47.1747 776.48 52.4147C781.48 57.6547 783.98 65.2747 783.98 75.2747V119.565H763.98V78.1347C763.98 72.8047 762.67 68.7247 760.05 65.9147C757.43 63.1047 753.74 61.7047 748.98 61.7047C744.22 61.7047 740.17 63.5147 736.84 67.1347C733.5 70.7547 731.84 75.3747 731.84 80.9947V119.565H711.84V119.555Z" fill="#4BA2DA"/>
<path d="M793.27 63.8344V46.6944H802.56V30.9844H822.56V46.6944H843.13V63.8344H822.56V102.404H843.99V119.544H802.56V63.8244H793.27V63.8344Z" fill="#4BA2DA"/>
<path d="M226.961 124.16C225.251 126.82 221.701 127.56 219.041 125.83C206.001 117.34 189.771 115.56 170.841 120.51C156.341 124.29 145.861 130.72 145.761 130.78C145.551 130.91 145.321 131.03 145.081 131.14C146.731 137.56 147.571 145.21 146.471 153.88C144.931 166.05 138.931 177.31 129.381 184.98C123.251 189.92 114.991 194.3 104.701 194.81C91.4106 195.47 80.2706 191.41 72.8106 187.54C73.4006 199.08 66.0906 214.73 52.8006 228C48.2606 232.56 43.4206 236.41 38.5806 239.45C23.2406 233.43 10.9406 221.32 4.64062 206.13C7.73062 201.16 11.6606 196.2 16.3306 191.53C29.6206 178.26 45.2806 170.95 56.8206 171.52C52.9306 164.06 48.9006 152.93 49.5506 139.66C50.0606 129.37 54.4306 121.11 59.3506 114.98C67.0406 105.41 78.2806 99.43 90.4506 97.89C99.1306 96.79 106.781 97.64 113.211 99.28C113.291 99.05 113.421 98.82 113.571 98.58C113.611 98.52 115.261 95.81 117.351 91.31C119.461 86.81 122.021 80.49 123.901 73.22C128.761 54.39 126.941 38.27 118.491 25.32C116.781 22.66 117.521 19.11 120.181 17.38C122.821 15.67 126.371 16.41 128.101 19.07C138.281 34.71 140.631 54.53 134.901 76.42C131.481 89.58 126.111 99.71 124.101 103.26C127.841 105.06 130.691 106.89 132.531 108.23C133.921 109.22 135.131 110.43 136.121 111.8C137.451 113.64 139.291 116.49 141.091 120.25C144.661 118.2 154.781 112.88 167.931 109.43C189.821 103.7 209.641 106.07 225.281 116.26C227.941 117.99 228.681 121.54 226.951 124.18L226.961 124.16Z" fill="white"/>
</svg>
