<svg width="333" height="249" viewBox="0 0 333 249" fill="none" xmlns="http://www.w3.org/2000/svg">
<g clip-path="url(#clip0_4451_4373)">
<rect width="333" height="249" rx="20" fill="#060015"/>
<g clip-path="url(#clip1_4451_4373)">
<path d="M81.3627 24.3572C70.5371 36.5512 66.1593 53.0566 68.3322 73.4171C70.0016 89.0009 75.0109 100.823 75.0616 100.942C75.1689 101.198 75.2594 101.451 75.3271 101.714C82.2295 100.979 90.2927 101.278 99.0886 103.747C111.447 107.215 122.162 115.142 128.631 126.211C132.79 133.313 136.029 142.532 134.951 153.264C133.559 167.113 127.634 178.027 122.45 185.15C134.481 186.298 149.558 196.264 161.243 212.05C172.928 227.836 178.237 245.793 175.5 257.634C184.98 256.235 199.662 256.716 218.202 265.729C232.294 272.579 244.275 283.921 253.451 294.834C267.759 311.832 277.82 331.972 281.993 350.837C289.259 383.718 279.625 400.842 275.069 406.764C273.954 408.215 272.516 409.279 270.803 409.921C263.809 412.55 244.618 416.762 215.292 400.211C198.468 390.71 182.144 375.206 170.066 356.559C162.313 344.592 154.96 329.825 152.524 314.346C149.318 293.982 153.145 279.8 157.252 271.141C145.128 270.301 129.714 260.264 117.818 244.194C105.923 228.124 101.005 211.078 103.421 199.237C95.094 202.114 82.9254 204.593 69.2738 201.881C58.6949 199.778 50.828 193.983 45.246 187.936C36.548 178.516 32.096 165.953 32.3882 153.121C32.5957 143.987 34.6649 136.188 37.3836 129.801C37.1554 129.665 36.9359 129.499 36.726 129.327C36.6759 129.289 34.1314 127.164 29.7917 124.288C25.4472 121.415 19.3123 117.789 12.072 114.727C-6.65084 106.819 -23.6232 106.229 -38.3641 112.983C-41.3758 114.363 -44.9375 113.042 -46.307 110.032C-47.6849 107.02 -46.3523 103.463 -43.3406 102.083C-25.5699 93.9436 -4.67592 94.544 17.0864 103.824C30.1902 109.409 39.8471 116.502 43.1988 119.133C45.6367 115.525 47.9897 112.851 49.6434 111.15C50.8861 109.873 52.3239 108.808 53.9087 107.993C56.0185 106.908 59.2624 105.438 63.4251 104.16C61.8875 100.186 57.9241 88.8792 56.4099 74.7158C53.8895 51.1919 59.4171 31.0334 72.3911 16.4144C74.5951 13.9333 78.3818 13.7013 80.8598 15.8986C83.339 18.0875 83.5619 21.8797 81.3627 24.3572Z" fill="#1A1327"/>
</g>
<g filter="url(#filter0_f_4451_4373)">
<path d="M151 -67H277V66H151V-67Z" fill="#915FFE"/>
</g>
<path d="M155 0H277V14C277 21.732 270.732 28 263 28H169C161.268 28 155 21.732 155 14V0Z" fill="#915FFE"/>
<path d="M183.356 14.348V13.724H188.42V14.348H183.356ZM185.468 17V13.88L185.672 14.432L182.108 8.6H183.056L186.188 13.724H185.684L188.816 8.6H189.704L186.152 14.432L186.344 13.88V17H185.468ZM192.965 17.06C192.341 17.06 191.781 16.924 191.285 16.652C190.797 16.372 190.413 15.992 190.133 15.512C189.853 15.024 189.713 14.468 189.713 13.844C189.713 13.212 189.853 12.656 190.133 12.176C190.413 11.696 190.797 11.32 191.285 11.048C191.781 10.776 192.341 10.64 192.965 10.64C193.501 10.64 193.985 10.744 194.417 10.952C194.849 11.16 195.189 11.472 195.437 11.888L194.801 12.32C194.585 12 194.317 11.764 193.997 11.612C193.677 11.46 193.329 11.384 192.953 11.384C192.505 11.384 192.101 11.488 191.741 11.696C191.381 11.896 191.097 12.18 190.889 12.548C190.681 12.916 190.577 13.348 190.577 13.844C190.577 14.34 190.681 14.772 190.889 15.14C191.097 15.508 191.381 15.796 191.741 16.004C192.101 16.204 192.505 16.304 192.953 16.304C193.329 16.304 193.677 16.228 193.997 16.076C194.317 15.924 194.585 15.692 194.801 15.38L195.437 15.812C195.189 16.22 194.849 16.532 194.417 16.748C193.985 16.956 193.501 17.06 192.965 17.06ZM203.231 17V10.7H204.083V17H203.231ZM199.739 12.92C200.531 12.928 201.135 13.104 201.551 13.448C201.967 13.792 202.175 14.288 202.175 14.936C202.175 15.608 201.951 16.124 201.503 16.484C201.055 16.844 200.415 17.02 199.583 17.012L197.087 17V10.7H197.939V12.896L199.739 12.92ZM199.523 16.364C200.115 16.372 200.559 16.256 200.855 16.016C201.159 15.768 201.311 15.408 201.311 14.936C201.311 14.464 201.163 14.12 200.867 13.904C200.571 13.68 200.123 13.564 199.523 13.556L197.939 13.532V16.34L199.523 16.364ZM206.509 17V10.7H207.361V13.484H211.333V10.7H212.185V17H211.333V14.216H207.361V17H206.509ZM218.519 17V15.608L218.483 15.38V13.052C218.483 12.516 218.331 12.104 218.027 11.816C217.731 11.528 217.287 11.384 216.695 11.384C216.287 11.384 215.899 11.452 215.531 11.588C215.163 11.724 214.851 11.904 214.595 12.128L214.211 11.492C214.531 11.22 214.915 11.012 215.363 10.868C215.811 10.716 216.283 10.64 216.779 10.64C217.595 10.64 218.223 10.844 218.663 11.252C219.111 11.652 219.335 12.264 219.335 13.088V17H218.519ZM216.347 17.06C215.875 17.06 215.463 16.984 215.111 16.832C214.767 16.672 214.503 16.456 214.319 16.184C214.135 15.904 214.043 15.584 214.043 15.224C214.043 14.896 214.119 14.6 214.271 14.336C214.431 14.064 214.687 13.848 215.039 13.688C215.399 13.52 215.879 13.436 216.479 13.436H218.651V14.072H216.503C215.895 14.072 215.471 14.18 215.231 14.396C214.999 14.612 214.883 14.88 214.883 15.2C214.883 15.56 215.023 15.848 215.303 16.064C215.583 16.28 215.975 16.388 216.479 16.388C216.959 16.388 217.371 16.28 217.715 16.064C218.067 15.84 218.323 15.52 218.483 15.104L218.675 15.692C218.515 16.108 218.235 16.44 217.835 16.688C217.443 16.936 216.947 17.06 216.347 17.06ZM221.603 17V10.7H222.467L225.323 15.536H224.963L227.867 10.7H228.659V17H227.879V11.672L228.035 11.744L225.323 16.232H224.939L222.203 11.696L222.383 11.66V17H221.603ZM237.227 17V10.7H238.079V17H237.227ZM233.735 12.92C234.527 12.928 235.131 13.104 235.547 13.448C235.963 13.792 236.171 14.288 236.171 14.936C236.171 15.608 235.947 16.124 235.499 16.484C235.051 16.844 234.411 17.02 233.579 17.012L231.083 17V10.7H231.935V12.896L233.735 12.92ZM233.519 16.364C234.111 16.372 234.555 16.256 234.851 16.016C235.155 15.768 235.307 15.408 235.307 14.936C235.307 14.464 235.159 14.12 234.863 13.904C234.567 13.68 234.119 13.564 233.519 13.556L231.935 13.532V16.34L233.519 16.364ZM242.068 17.072C241.612 17.072 241.16 17.008 240.712 16.88C240.264 16.752 239.868 16.556 239.524 16.292L239.8 15.656C240.104 15.88 240.456 16.052 240.856 16.172C241.256 16.284 241.652 16.34 242.044 16.34C242.436 16.332 242.776 16.276 243.064 16.172C243.352 16.068 243.576 15.924 243.736 15.74C243.896 15.556 243.976 15.348 243.976 15.116C243.976 14.78 243.824 14.52 243.52 14.336C243.216 14.144 242.8 14.048 242.272 14.048H241.192V13.424H242.212C242.524 13.424 242.8 13.384 243.04 13.304C243.28 13.224 243.464 13.108 243.592 12.956C243.728 12.804 243.796 12.624 243.796 12.416C243.796 12.192 243.716 12 243.556 11.84C243.404 11.68 243.192 11.56 242.92 11.48C242.648 11.4 242.34 11.36 241.996 11.36C241.684 11.368 241.36 11.416 241.024 11.504C240.688 11.584 240.356 11.708 240.028 11.876L239.788 11.216C240.156 11.024 240.52 10.88 240.88 10.784C241.248 10.68 241.616 10.628 241.984 10.628C242.488 10.612 242.94 10.672 243.34 10.808C243.748 10.944 244.072 11.14 244.312 11.396C244.552 11.644 244.672 11.944 244.672 12.296C244.672 12.608 244.576 12.88 244.384 13.112C244.192 13.344 243.936 13.524 243.616 13.652C243.296 13.78 242.932 13.844 242.524 13.844L242.56 13.616C243.28 13.616 243.84 13.756 244.24 14.036C244.648 14.316 244.852 14.696 244.852 15.176C244.852 15.552 244.728 15.884 244.48 16.172C244.232 16.452 243.896 16.672 243.472 16.832C243.056 16.992 242.588 17.072 242.068 17.072Z" fill="white"/>
</g>
<defs>
<filter id="filter0_f_4451_4373" x="-82" y="-300" width="592" height="599" filterUnits="userSpaceOnUse" color-interpolation-filters="sRGB">
<feFlood flood-opacity="0" result="BackgroundImageFix"/>
<feBlend mode="normal" in="SourceGraphic" in2="BackgroundImageFix" result="shape"/>
<feGaussianBlur stdDeviation="116.5" result="effect1_foregroundBlur_4451_4373"/>
</filter>
<clipPath id="clip0_4451_4373">
<rect width="333" height="249" rx="20" fill="white"/>
</clipPath>
<clipPath id="clip1_4451_4373">
<rect width="158.481" height="434.839" fill="white" transform="translate(-49.2422 106.289) rotate(-36.5101)"/>
</clipPath>
</defs>
</svg>
